<svg xmlns="http://www.w3.org/2000/svg" xmlns:xlink="http://www.w3.org/1999/xlink" width="186.958" height="140.79" viewBox="0 0 186.958 140.79">
  <defs>
    <clipPath id="clip-path">
      <path id="Pfad_2791" data-name="Pfad 2791" d="M0-17.338H186.958v-111.97H0Z" transform="translate(0 129.308)" fill="none"/>
    </clipPath>
    <clipPath id="clip-path-2">
      <path id="Pfad_2793" data-name="Pfad 2793" d="M0,11.482H186.958v-140.79H0Z" transform="translate(0 129.308)" fill="none"/>
    </clipPath>
  </defs>
  <g id="Gruppe_86" data-name="Gruppe 86" transform="translate(0 129.308)">
    <g id="Gruppe_87" data-name="Gruppe 87" transform="translate(0 -129.308)" clip-path="url(#clip-path)">
      <g id="Gruppe_86-2" data-name="Gruppe 86" transform="translate(2.557 0)">
        <path id="Pfad_2790" data-name="Pfad 2790" d="M7.806,4.047C22.974,4.9,34.315.445,42.5-9.592c1.356-1.663,2.012-2.433,2.318-2.781l1.915-.6-1.353-2.107a13.212,13.212,0,0,0-8.011-5.428c-3.228-.6-6.561.255-9.918,2.551a15.473,15.473,0,0,1-6.85-2.707C16.566-23.32,10.611-29.132,5.14-41.751L3.481-45.579,1.66-41.825C-4.574-28.97-3.319-17.182,5.008-8.993A43.09,43.09,0,0,1-3.136-6.984c-6.388.967-16.8,1.248-30.153-2.9l-1.136,3.657c27.2,8.447,43.236-.154,43.9-.524L12-8.143,9.738-9.927C1.69-16.267-.477-25.521,3.454-36.275c11.2,22.685,24.114,22.2,24.685,22.164l.562-.034.454-.332c2.643-1.93,5.155-2.7,7.472-2.276a8.772,8.772,0,0,1,4.623,2.648c-.433.515-.99,1.194-1.722,2.094C34.839-6.259,26.475,1.268,8.023.224-7.563-.66-20.412.163-36.3,6.969l1.509,3.521C-19.592,3.978-7.223,3.2,7.806,4.047M43.375,29.606c-8.738,0-15.326,6.877-15.326,16s6.588,16,15.326,16a13.744,13.744,0,0,0,6.876-1.8v-4.7A10.619,10.619,0,0,1,43.3,57.516c-5.27,0-10.837-4.789-10.837-11.915s5.643-11.915,10.913-11.915c5.427,0,11.039,4.456,11.039,11.915V60.987H58.7V45.6c0-9.119-6.589-16-15.328-16m40.337,0A12.383,12.383,0,0,0,70.934,42.432V60.987h4.289V42.737c0-5.244,3.57-9.05,8.489-9.05s8.488,3.806,8.488,9.05v18.25h4.289V42.432A12.382,12.382,0,0,0,83.712,29.606M18.865,34.3V30.214h-9.2V22.293H5.377V51.756c0,5.78,3.568,9.231,9.544,9.231h3.944V56.906H14.424c-3.184,0-4.758-1.835-4.758-4.907V34.3ZM-10.2,45.6A11.713,11.713,0,0,0-21.677,33.687,11.714,11.714,0,0,0-33.152,45.6,11.714,11.714,0,0,0-21.677,57.516,11.713,11.713,0,0,0-10.2,45.6m4.413,0a15.959,15.959,0,0,1-15.886,16,15.96,15.96,0,0,1-15.888-16,15.96,15.96,0,0,1,15.888-16,15.959,15.959,0,0,1,15.886,16M-48.3,40.909V60.987H-52.59V40.909c0-4.962-3.466-7.222-6.686-7.222-3.327,0-6.685,2.233-6.685,7.222V60.987h-4.289V40.909c0-4.989-3.358-7.222-6.685-7.222-3.22,0-6.685,2.26-6.685,7.222V60.987h-4.29V40.909c0-6.76,4.411-11.3,10.975-11.3,4.1,0,7.12,1.529,8.83,4.446,1.711-2.917,4.724-4.446,8.829-4.446,6.564,0,10.975,4.542,10.975,11.3" transform="translate(87.911 45.579)" fill="#3e4c55"/>
      </g>
    </g>
    <g id="Gruppe_89" data-name="Gruppe 89" transform="translate(0 -129.308)" clip-path="url(#clip-path-2)">
      <g id="Gruppe_88" data-name="Gruppe 88" transform="translate(57.503 128.703)">
        <path id="Pfad_2792" data-name="Pfad 2792" d="M.848.536h-.7a.237.237,0,0,0-.25.252V4.276a7.322,7.322,0,0,1-3.187.687A4.911,4.911,0,0,1-8.342.033,4.978,4.978,0,0,1-3.193-4.948,5.293,5.293,0,0,1-.24-4.16a.214.214,0,0,0,.334-.084l.3-.5A.234.234,0,0,0,.312-5.1a6.627,6.627,0,0,0-3.621-.937A6.021,6.021,0,0,0-9.546.033a5.973,5.973,0,0,0,6.2,6.019A8.234,8.234,0,0,0,.914,4.98.319.319,0,0,0,1.1,4.661V.788A.238.238,0,0,0,.848.536M19.666,5.6,16.986,1.692a3.666,3.666,0,0,0,2.547-3.605c0-2.7-1.859-3.972-4.51-3.972H11.5a.237.237,0,0,0-.25.25V5.649a.237.237,0,0,0,.25.252h.686a.237.237,0,0,0,.252-.252V2.028h2.432a6.522,6.522,0,0,0,.822-.051l2.566,3.756a.381.381,0,0,0,.318.168h.92c.2,0,.285-.118.168-.3M12.44.956V-4.814h2.55c1.895,0,3.321.923,3.321,2.9,0,1.745-1.342,2.869-3.438,2.869Zm22.575,5.1A5.879,5.879,0,0,0,41.1.016a5.911,5.911,0,0,0-6.085-6.052A5.949,5.949,0,0,0,28.9.016a5.907,5.907,0,0,0,6.119,6.036m0-1.089A4.8,4.8,0,0,1,30.1.016a4.859,4.859,0,0,1,4.914-4.964A4.841,4.841,0,0,1,39.9.016a4.777,4.777,0,0,1-4.88,4.948M55.847,6.052c2.9,0,4.811-1.759,4.811-4.928V-5.633a.238.238,0,0,0-.252-.252h-.67a.237.237,0,0,0-.25.252V1.208a3.408,3.408,0,0,1-3.606,3.705,3.46,3.46,0,0,1-3.707-3.705V-5.633a.237.237,0,0,0-.25-.252h-.737a.237.237,0,0,0-.25.252V1.124a4.539,4.539,0,0,0,4.912,4.928m19.3-11.937H71.558a.237.237,0,0,0-.252.25V5.649a.237.237,0,0,0,.252.252h.686a.237.237,0,0,0,.25-.252V2.01h2.617c2.633,0,4.576-1.323,4.576-3.956,0-2.566-1.926-3.939-4.544-3.939M75.111.939H72.494V-4.814h2.617c1.928,0,3.3,1.04,3.3,2.869,0,1.862-1.359,2.884-3.3,2.884" transform="translate(9.546 6.036)" fill="#29373e"/>
      </g>
    </g>
  </g>
</svg>
